<svg width="48" height="48" viewBox="0 0 48 48" fill="none" xmlns="http://www.w3.org/2000/svg">
<g id="Group">
<g id="Group_2">
<g id="Group_3">
<path id="Vector" d="M24 48C37.2548 48 48 37.2548 48 24C48 10.7452 37.2548 0 24 0C10.7452 0 0 10.7452 0 24C0 37.2548 10.7452 48 24 48Z" fill="#D2483D"/>
</g>
</g>
<path id="Vector_2" d="M40 24L14.4031 36.8034L25.4151 47.9573C35.6215 47.3637 44.1149 40.3932 46.9705 30.9705L40 24Z" fill="#9E231D"/>
<g id="Group_4">
<path id="Vector_3" d="M23.5 28.0137C26.7217 28.0137 29.3334 25.402 29.3334 22.1803C29.3334 18.9586 26.7217 16.3469 23.5 16.3469C20.2783 16.3469 17.6666 18.9586 17.6666 22.1803C17.6666 25.402 20.2783 28.0137 23.5 28.0137Z" fill="#E39D46"/>
<path id="Vector_4" d="M23.5 28.6599C19.9271 28.6599 17.0201 25.753 17.0201 22.18C17.0201 18.607 19.927 15.7002 23.5 15.7002C27.073 15.7002 29.9798 18.607 29.9798 22.18C29.9798 25.753 27.073 28.6599 23.5 28.6599ZM23.5 16.9933C20.64 16.9933 18.3131 19.3201 18.3131 22.1802C18.3131 25.0403 20.6399 27.3671 23.5 27.3671C26.3601 27.3671 28.6869 25.0403 28.6869 22.1802C28.6869 19.3201 26.3601 16.9933 23.5 16.9933Z" fill="#F7CA68"/>
</g>
<g id="Group_5">
<path id="Vector_5" d="M23.5 25.097C25.1108 25.097 26.4167 23.7912 26.4167 22.1804C26.4167 20.5695 25.1108 19.2637 23.5 19.2637C21.8892 19.2637 20.5833 20.5695 20.5833 22.1804C20.5833 23.7912 21.8892 25.097 23.5 25.097Z" fill="#E39D46"/>
<path id="Vector_6" d="M23.5 25.7432C21.5354 25.7432 19.9368 24.1447 19.9368 22.1801C19.9368 20.2155 21.5354 18.6169 23.5 18.6169C25.4646 18.6169 27.0631 20.2155 27.0631 22.1801C27.0631 24.1447 25.4647 25.7432 23.5 25.7432ZM23.5 19.9099C22.2483 19.9099 21.2298 20.9284 21.2298 22.1801C21.2298 23.4318 22.2483 24.4503 23.5 24.4503C24.7517 24.4503 25.7702 23.4318 25.7702 22.1801C25.7702 20.9284 24.7517 19.9099 23.5 19.9099Z" fill="#F7CA68"/>
</g>
<g id="Group_6">
<path id="Vector_7" d="M23.4999 16.3469C23.487 16.3469 23.4742 16.3479 23.4613 16.3479V28.0125C23.4742 28.0127 23.487 28.0135 23.4999 28.0135C26.7216 28.0135 29.3333 25.4018 29.3333 22.1801C29.3333 18.9586 26.7216 16.3469 23.4999 16.3469Z" fill="#C46116"/>
<path id="Vector_8" d="M23.4999 15.7004C23.487 15.7004 23.4742 15.7014 23.4613 15.7014V16.9943C23.4742 16.9942 23.487 16.9934 23.4999 16.9934C26.3599 16.9934 28.6868 19.3202 28.6868 22.1803C28.6868 25.0404 26.3601 27.3672 23.4999 27.3672C23.487 27.3672 23.4742 27.3664 23.4613 27.3662V28.6591C23.4742 28.6591 23.487 28.6601 23.4999 28.6601C27.0728 28.6601 29.9798 25.7533 29.9798 22.1803C29.9798 18.6073 27.0729 15.7004 23.4999 15.7004Z" fill="#D89221"/>
</g>
<g id="Group_7">
<path id="Vector_9" d="M23.4999 19.2637C23.4868 19.2637 23.4742 19.2654 23.4613 19.2656V25.0951C23.4744 25.0953 23.4868 25.097 23.4999 25.097C25.1108 25.097 26.4166 23.7912 26.4166 22.1804C26.4166 20.5695 25.1108 19.2637 23.4999 19.2637Z" fill="#C46116"/>
<path id="Vector_10" d="M23.4999 18.6169C23.487 18.6169 23.4742 18.6178 23.4613 18.6179V19.9118C23.4742 19.9117 23.4868 19.9099 23.4999 19.9099C24.7516 19.9099 25.7702 20.9284 25.7702 22.1801C25.7702 23.4318 24.7516 24.4503 23.4999 24.4503C23.4868 24.4503 23.4742 24.4485 23.4613 24.4484V25.7423C23.4742 25.7424 23.487 25.7432 23.4999 25.7432C25.4645 25.7432 27.0631 24.1447 27.0631 22.1801C27.0631 20.2155 25.4647 18.6169 23.4999 18.6169Z" fill="#D89221"/>
</g>
<g id="Group_8">
<path id="Vector_11" d="M16 29.3334C18.9455 29.3334 21.3334 26.9456 21.3334 24.0001C21.3334 21.0546 18.9455 18.6667 16 18.6667C13.0545 18.6667 10.6667 21.0546 10.6667 24.0001C10.6667 26.9456 13.0545 29.3334 16 29.3334Z" fill="#E39D46"/>
<path id="Vector_12" d="M16 29.9799C12.7027 29.9799 10.0202 27.2974 10.0202 24.0001C10.0202 20.7028 12.7027 18.0203 16 18.0203C19.2973 18.0203 21.9798 20.7028 21.9798 24.0001C21.9798 27.2974 19.2973 29.9799 16 29.9799ZM16 19.3132C13.4158 19.3132 11.3131 21.4158 11.3131 24.0001C11.3131 26.5843 13.4158 28.6869 16 28.6869C18.5842 28.6869 20.6869 26.5843 20.6869 24.0001C20.6869 21.4158 18.5842 19.3132 16 19.3132Z" fill="#F7CA68"/>
</g>
<g id="Group_9">
<path id="Vector_13" d="M16 26.6666C17.4728 26.6666 18.6667 25.4727 18.6667 23.9999C18.6667 22.5272 17.4728 21.3333 16 21.3333C14.5273 21.3333 13.3334 22.5272 13.3334 23.9999C13.3334 25.4727 14.5273 26.6666 16 26.6666Z" fill="#E39D46"/>
<path id="Vector_14" d="M16 27.313C14.1731 27.313 12.6869 25.8268 12.6869 23.9999C12.6869 22.173 14.1731 20.6868 16 20.6868C17.8269 20.6868 19.3132 22.173 19.3132 23.9999C19.3132 25.8268 17.8269 27.313 16 27.313ZM16 21.9797C14.886 21.9797 13.9798 22.8859 13.9798 23.9999C13.9798 25.1139 14.886 26.0201 16 26.0201C17.114 26.0201 18.0202 25.1139 18.0202 23.9999C18.0202 22.8859 17.114 21.9797 16 21.9797Z" fill="#F7CA68"/>
</g>
<g id="Group_10">
<path id="Vector_15" d="M30.6667 32.0001C34.3486 32.0001 37.3333 29.0153 37.3333 25.3334C37.3333 21.6515 34.3486 18.6667 30.6667 18.6667C26.9848 18.6667 24 21.6515 24 25.3334C24 29.0153 26.9848 32.0001 30.6667 32.0001Z" fill="#E39D46"/>
<path id="Vector_16" d="M30.6666 32.6465C26.6342 32.6465 23.3535 29.3659 23.3535 25.3334C23.3535 21.3009 26.6342 18.0203 30.6666 18.0203C34.6991 18.0203 37.9798 21.3009 37.9798 25.3334C37.9798 29.3659 34.6991 32.6465 30.6666 32.6465ZM30.6666 19.3132C27.3471 19.3132 24.6464 22.0138 24.6464 25.3334C24.6464 28.653 27.3471 31.3536 30.6666 31.3536C33.9862 31.3536 36.6868 28.653 36.6868 25.3334C36.6868 22.0138 33.9862 19.3132 30.6666 19.3132Z" fill="#F7CA68"/>
</g>
<g id="Group_11">
<path id="Vector_17" d="M30.6666 29.3738C32.8981 29.3738 34.707 27.5648 34.707 25.3334C34.707 23.1019 32.8981 21.293 30.6666 21.293C28.4352 21.293 26.6262 23.1019 26.6262 25.3334C26.6262 27.5648 28.4352 29.3738 30.6666 29.3738Z" fill="#E39D46"/>
<path id="Vector_18" d="M30.6667 30.0202C28.0824 30.0202 25.9798 27.9176 25.9798 25.3334C25.9798 22.7491 28.0824 20.6465 30.6667 20.6465C33.2509 20.6465 35.3535 22.7491 35.3535 25.3334C35.3535 27.9176 33.2509 30.0202 30.6667 30.0202ZM30.6667 21.9394C28.7953 21.9394 27.2727 23.462 27.2727 25.3334C27.2727 27.2047 28.7953 28.7273 30.6667 28.7273C32.538 28.7273 34.0606 27.2047 34.0606 25.3334C34.0606 23.462 32.538 21.9394 30.6667 21.9394Z" fill="#F7CA68"/>
</g>
<g id="Group_12">
<path id="Vector_19" d="M30.6667 26.6667C31.4031 26.6667 32 26.0697 32 25.3333C32 24.597 31.4031 24 30.6667 24C29.9303 24 29.3334 24.597 29.3334 25.3333C29.3334 26.0697 29.9303 26.6667 30.6667 26.6667Z" fill="#E67E22"/>
<path id="Vector_20" d="M30.6667 27.3131C29.575 27.3131 28.6869 26.425 28.6869 25.3333C28.6869 24.2416 29.575 23.3535 30.6667 23.3535C31.7584 23.3535 32.6465 24.2416 32.6465 25.3333C32.6465 26.425 31.7584 27.3131 30.6667 27.3131ZM30.6667 24.6464C30.2879 24.6464 29.9798 24.9545 29.9798 25.3333C29.9798 25.7121 30.2879 26.0202 30.6667 26.0202C31.0455 26.0202 31.3536 25.7121 31.3536 25.3333C31.3536 24.9545 31.0455 24.6464 30.6667 24.6464Z" fill="#F7CA68"/>
</g>
<g id="Group_13">
<path id="Vector_21" d="M40 24C40 32.8365 32.8365 40 24 40C15.1635 40 8 32.8365 8 24H40Z" fill="#F0DEB4"/>
</g>
<g id="Group_14">
<path id="Vector_22" d="M23.4613 24V39.99C23.6402 39.996 23.8196 40 24 40C32.8365 40 40 32.8365 40 24H23.4613Z" fill="#D5C295"/>
</g>
<g id="Group_15">
<path id="Vector_23" d="M32 19.3131C31.643 19.3131 31.3535 19.0237 31.3535 18.6666V7.99998C31.3535 7.64297 31.643 7.35352 32 7.35352C32.357 7.35352 32.6464 7.64297 32.6464 7.99998V18.6666C32.6464 19.0237 32.357 19.3131 32 19.3131Z" fill="#F7CA68"/>
</g>
<g id="Group_16">
<path id="Vector_24" d="M29.3334 21.9799C28.9763 21.9799 28.6869 21.6904 28.6869 21.3334V10.6667C28.6869 10.3097 28.9763 10.0203 29.3334 10.0203C29.6904 10.0203 29.9798 10.3097 29.9798 10.6667V21.3334C29.9798 21.6904 29.6904 21.9799 29.3334 21.9799Z" fill="#F7CA68"/>
</g>
<g id="Group_17">
<path id="Vector_25" d="M32 11.4748H10.6667C10.2203 11.4748 9.85858 11.1131 9.85858 10.6667C9.85858 10.2203 10.2203 9.85864 10.6667 9.85864H32C32.4464 9.85864 32.8081 10.2203 32.8081 10.6667C32.8081 11.1131 32.4464 11.4748 32 11.4748Z" fill="#D5C295"/>
</g>
<g id="Group_18">
<path id="Vector_26" d="M34.6667 8.80805H13.3333C12.887 8.80805 12.5253 8.44636 12.5253 7.99997C12.5253 7.55359 12.887 7.19189 13.3333 7.19189H34.6667C35.1131 7.19189 35.4748 7.55359 35.4748 7.99997C35.4748 8.44636 35.1131 8.80805 34.6667 8.80805Z" fill="#D5C295"/>
</g>
<g id="Group_19">
<path id="Vector_27" d="M32 9.85864H23.9462V11.4748H32C32.4464 11.4748 32.8081 11.1131 32.8081 10.6667C32.8081 10.2203 32.4464 9.85864 32 9.85864Z" fill="#BCA77E"/>
</g>
<g id="Group_20">
<path id="Vector_28" d="M34.6667 7.19189H23.9462V8.80805H34.6667C35.113 8.80805 35.4747 8.44636 35.4747 7.99997C35.4747 7.55359 35.113 7.19189 34.6667 7.19189Z" fill="#BCA77E"/>
</g>
</g>
</svg>
